<?xml version="1.0" encoding="UTF-8" standalone="no"?>
<!DOCTYPE svg PUBLIC "-//W3C//DTD SVG 1.1//EN" "http://www.w3.org/Graphics/SVG/1.1/DTD/svg11.dtd">
<svg width="100%" height="100%" viewBox="0 0 1024 1024" version="1.1" xmlns="http://www.w3.org/2000/svg" xmlns:xlink="http://www.w3.org/1999/xlink" xml:space="preserve" xmlns:serif="http://www.serif.com/" style="fill-rule:evenodd;clip-rule:evenodd;stroke-linejoin:round;stroke-miterlimit:2;">
    <g id="Artboard1" transform="matrix(1.84245,0,0,2.32054,-1203.6,-5229.77)">
        <rect x="653.258" y="2253.69" width="555.781" height="441.277" style="fill:none;"/>
        <g transform="matrix(0.445577,0,0,0.366514,581.864,2242.41)">
            <path d="M449.26,390.955C449.26,394.515 446.266,397.405 442.578,397.405L166.911,397.405C163.223,397.405 160.229,394.515 160.229,390.955C160.229,387.395 163.223,384.505 166.911,384.505L442.578,384.505C446.266,384.505 449.26,387.395 449.26,390.955Z" style="fill:white;"/>
        </g>
        <g transform="matrix(0.445577,0,0,0.366514,803.846,2242.41)">
            <path d="M449.26,390.955C449.26,394.515 446.266,397.405 442.578,397.405L166.911,397.405C163.223,397.405 160.229,394.515 160.229,390.955C160.229,387.395 163.223,384.505 166.911,384.505L442.578,384.505C446.266,384.505 449.26,387.395 449.26,390.955Z" style="fill:white;"/>
        </g>
        <g transform="matrix(0.445577,0,0,0.366514,803.846,2331.21)">
            <path d="M449.26,390.955C449.26,394.515 446.266,397.405 442.578,397.405L166.911,397.405C163.223,397.405 160.229,394.515 160.229,390.955C160.229,387.395 163.223,384.505 166.911,384.505L442.578,384.505C446.266,384.505 449.26,387.395 449.26,390.955Z" style="fill:white;"/>
        </g>
        <g transform="matrix(0.445577,0,0,0.366514,581.88,2331.21)">
            <path d="M449.26,390.955C449.26,394.515 446.266,397.405 442.578,397.405L166.911,397.405C163.223,397.405 160.229,394.515 160.229,390.955C160.229,387.395 163.223,384.505 166.911,384.505L442.578,384.505C446.266,384.505 449.26,387.395 449.26,390.955Z" style="fill:white;"/>
        </g>
        <g transform="matrix(0.445577,0,0,0.366514,581.88,2286.89)">
            <path d="M449.26,390.955C449.26,394.515 446.266,397.405 442.578,397.405L166.911,397.405C163.223,397.405 160.229,394.515 160.229,390.955C160.229,387.395 163.223,384.505 166.911,384.505L442.578,384.505C446.266,384.505 449.26,387.395 449.26,390.955Z" style="fill:white;"/>
        </g>
        <g transform="matrix(1.16084,0,0,0.366514,687.52,2286.25)">
            <path d="M449.26,390.955C449.26,394.515 448.111,397.405 446.696,397.405L162.794,397.405C161.378,397.405 160.229,394.515 160.229,390.955C160.229,387.395 161.378,384.505 162.794,384.505L446.696,384.505C448.111,384.505 449.26,387.395 449.26,390.955Z" style="fill:white;"/>
        </g>
        <g transform="matrix(0.445577,0,0,0.366514,1008.86,2242.41)">
            <path d="M449.26,390.955C449.26,394.515 446.266,397.405 442.578,397.405L166.911,397.405C163.223,397.405 160.229,394.515 160.229,390.955C160.229,387.395 163.223,384.505 166.911,384.505L442.578,384.505C446.266,384.505 449.26,387.395 449.26,390.955Z" style="fill:white;"/>
        </g>
    </g>
</svg>
