<?xml version="1.0" encoding="UTF-8" standalone="no"?>
<!DOCTYPE svg PUBLIC "-//W3C//DTD SVG 1.1//EN" "http://www.w3.org/Graphics/SVG/1.1/DTD/svg11.dtd">
<svg width="100%" height="100%" viewBox="0 0 1024 1024" version="1.1" xmlns="http://www.w3.org/2000/svg" xmlns:xlink="http://www.w3.org/1999/xlink" xml:space="preserve" xmlns:serif="http://www.serif.com/" style="fill-rule:evenodd;clip-rule:evenodd;stroke-linejoin:round;stroke-miterlimit:2;">
    <g id="Artboard1" transform="matrix(1.84245,0,0,2.32054,-1203.6,-5229.77)">
        <rect x="653.258" y="2253.69" width="555.781" height="441.277" style="fill:none;"/>
        <g transform="matrix(0.445577,0,0,0.366514,612.702,2244.17)">
            <path d="M678.261,652.112L678.261,917.376C678.261,934.832 664.089,949.004 646.633,949.004L351.451,949.004C333.995,949.004 319.823,934.832 319.823,917.376L319.823,652.112L373.637,652.112L378.74,651.595L383.534,650.106L391.598,644.671L397.033,636.606L398.523,631.812L399.04,626.709L398.523,621.607L397.033,616.812L391.598,608.748L383.534,603.313L378.74,601.823L373.637,601.307L319.823,601.307L319.823,531.184L373.637,531.184L378.74,530.667L383.534,529.177L391.598,523.742L397.033,515.678L398.523,510.884L399.04,505.781L398.523,500.678L397.033,495.884L391.598,487.819L383.534,482.385L378.74,480.895L373.637,480.378L319.823,480.378L319.823,411.565L373.6,411.565L378.703,411.048L383.497,409.559L391.562,404.124L396.996,396.06L398.486,391.265L399.003,386.163L398.486,381.06L396.996,376.265L391.562,368.201L383.497,362.766L378.703,361.277L373.6,360.76L319.823,360.76L319.823,338.547C319.823,321.091 333.995,306.918 351.451,306.918L646.633,306.918C664.089,306.918 678.261,321.091 678.261,338.547L678.261,360.76L595.659,360.76L590.557,361.277L585.762,362.766L577.698,368.201L572.263,376.265L570.774,381.06L570.257,386.163L570.774,391.265L572.263,396.06L577.698,404.124L585.762,409.559L590.557,411.048L595.659,411.565L678.261,411.565L678.261,480.378L591.798,480.378L586.695,480.895L581.901,482.385L573.836,487.819L568.402,495.884L566.912,500.678L566.395,505.781L566.912,510.884L568.402,515.678L573.836,523.742L581.901,529.177L586.695,530.667L591.798,531.184L678.261,531.184L678.261,601.307L595.659,601.307L590.557,601.823L585.762,603.313L577.698,608.748L572.263,616.812L570.774,621.607L570.257,626.709L570.774,631.812L572.263,636.606L577.698,644.671L585.762,650.106L590.557,651.595L595.659,652.112L678.261,652.112Z" style="fill:rgb(242,13,13);"/>
        </g>
        <g transform="matrix(0.445577,0,0,0.0909725,814.752,2328.74)">
            <path d="M678.261,728.524L678.261,788.483C678.261,877.077 660.408,949.004 638.418,949.004L359.666,949.004C337.676,949.004 319.823,877.077 319.823,788.483L319.823,728.524L418.334,728.524L423.437,726.442L428.231,720.441L436.295,698.544L441.73,666.054L443.22,646.738L443.737,626.18L443.22,605.622L441.73,586.306L436.295,553.816L428.231,531.92L423.437,525.919L418.334,523.837L319.823,523.837L319.823,467.44C319.823,378.846 337.676,306.918 359.666,306.918L638.418,306.918C660.408,306.918 678.261,378.846 678.261,467.44L678.261,523.837L602.309,523.837L597.207,525.919L592.412,531.92L584.348,553.816L578.913,586.306L577.423,605.622L576.907,626.18L577.423,646.738L578.913,666.054L584.348,698.544L592.412,720.441L597.207,726.442L602.309,728.524L678.261,728.524Z" style="fill:rgb(242,13,13);"/>
        </g>
        <g transform="matrix(0.445577,0,0,0.0909725,814.752,2417.2)">
            <path d="M319.823,520.573L319.823,467.44C319.823,378.846 337.676,306.918 359.666,306.918L638.418,306.918C660.408,306.918 678.261,378.846 678.261,467.44L678.261,788.483C678.261,877.077 660.408,949.004 638.418,949.004L359.666,949.004C337.676,949.004 319.823,877.077 319.823,788.483L319.823,725.26L418.334,725.26L423.437,723.178L428.231,717.177L436.295,695.281L441.73,662.791L443.22,643.475L443.737,622.917L443.22,602.359L441.73,583.043L436.295,550.553L428.231,528.656L423.437,522.655L418.334,520.573L319.823,520.573Z" style="fill:rgb(242,13,13);"/>
        </g>
    </g>
</svg>
